PathFileType  4	(X/Y/Z) C:\Users\HPL 1\Documents/Temp/Sub278498/Files_W_HJCs/
DataRate	CameraRate	NumFrames	NumMarkers	Units	OrigDataRate	OrigDataStartFrame	OrigNumFrames
50.0	50.0	4	42	mm	50.0	86	684
Frame#	Time  	r_knee			r_shank(antsup)			r_ankle			r_calc			r_5meta			r_toe			L_knee			L_shank(ant_sup)			L_ankle			L_calc			L_5meta			L_toe			r_mknee			r_mankle			L_mknee			L_mankle			r_sh2			r_sh3			r_sh4			L_sh2			L_sh3			r_thigh1			r_thigh2			r_thigh3			r_thigh4			r_thigh5			L_thigh1			L_thigh2			L_thigh3			L_thigh4			r.ASIS			r.PSIS			L.ASIS			L.PSIS			C7			R_Shoulder			L_Shoulder			Sternum			R_HJC			L_HJC			R_HJC_reg			L_HJC_reg			
		X1	Y1	Z1	X2	Y2	Z2	X3	Y3	Z3	X4	Y4	Z4	X5	Y5	Z5	X6	Y6	Z6	X7	Y7	Z7	X8	Y8	Z8	X9	Y9	Z9	X10	Y10	Z10	X11	Y11	Z11	X12	Y12	Z12	X13	Y13	Z13	X14	Y14	Z14	X15	Y15	Z15	X16	Y16	Z16	X17	Y17	Z17	X18	Y18	Z18	X19	Y19	Z19	X20	Y20	Z20	X21	Y21	Z21	X22	Y22	Z22	X23	Y23	Z23	X24	Y24	Z24	X25	Y25	Z25	X26	Y26	Z26	X27	Y27	Z27	X28	Y28	Z28	X29	Y29	Z29	X30	Y30	Z30	X31	Y31	Z31	X32	Y32	Z32	X33	Y33	Z33	X34	Y34	Z34	X35	Y35	Z35	X36	Y36	Z36	X37	Y37	Z37	X38	Y38	Z38	X39	Y39	Z39	X40	Y40	Z40	X41	Y41	Z41	X42	Y42	Z42	

86	1.70000	782.00488	572.71649	-266.17261	795.79492	483.13501	-263.51556	711.51080	113.51098	-285.07504	623.10779	72.64072	-333.64774	818.28839	39.47045	-250.07094	863.39270	70.85435	-310.87332	970.07471	646.24420	-586.27197	1047.02893	551.79504	-588.46686	1125.11584	203.34799	-608.84314	1059.48999	143.86041	-562.71576	1263.57849	162.31136	-631.92645	1291.44653	206.04988	-573.81744	781.27490	557.92053	-394.38031	727.95245	119.04054	-380.61917	984.19128	635.81097	-462.01208	1143.35974	218.66196	-515.43451	783.31958	363.90176	-268.20898	720.56866	488.19473	-250.92087	701.09772	373.68179	-252.01337	960.36847	533.27814	-612.93011	1003.65222	418.48474	-621.38031	833.59161	897.71069	-238.83414	841.60529	782.79095	-244.88963	796.90100	747.43213	-234.70265	720.88043	883.76605	-228.34634	734.22424	767.72534	-245.87677	907.15424	920.54395	-589.96259	980.40948	802.89429	-587.59375	809.27936	862.32867	-616.68207	881.76324	749.61548	-604.01221	842.72693	1096.79919	-279.40314	645.61761	1114.55298	-359.43109	824.62195	1127.40625	-533.25879	642.67651	1118.89734	-439.96738	720.76019	1614.54077	-392.12177	781.51678	1583.93640	-227.85509	772.47656	1573.11047	-574.02478	853.33850	1530.30334	-395.44540	783.72763	1001.95139	-298.13685	771.15356	1028.87421	-532.62622	775.71099	1023.39016	-316.91453	769.54576	1032.49695	-485.73735
87	1.72000	780.78546	572.77051	-265.55161	794.70007	483.24655	-262.83524	711.43842	113.44437	-285.10068	623.09082	72.59653	-333.71176	818.25598	39.46368	-250.00015	863.35486	70.84233	-310.76984	985.23853	656.68665	-585.20990	1067.00635	566.14746	-586.80579	1162.37256	222.51041	-608.63110	1098.64441	161.48567	-562.41760	1303.10547	184.49910	-628.92572	1329.33423	229.02888	-570.57050	780.75519	557.85016	-394.02039	728.01965	119.01064	-380.59058	999.05219	646.87170	-461.25623	1179.92786	237.90703	-514.41626	782.48114	363.96579	-267.57849	719.82391	488.14841	-251.10265	700.16235	373.55634	-252.19017	981.57733	543.65308	-611.93640	1030.19409	430.81567	-620.46869	831.04779	898.00800	-237.69429	840.02496	783.25769	-243.71164	795.00934	747.77264	-234.12119	718.35413	883.77600	-228.38202	732.26691	767.88635	-245.76355	910.94049	928.46326	-588.38043	988.60974	813.49738	-585.87775	815.43677	865.56793	-616.34424	893.09222	755.64441	-602.91199	839.74835	1097.53235	-278.36972	642.91376	1113.61597	-358.85049	821.54132	1128.50989	-532.21954	639.76483	1117.55457	-439.41962	719.51794	1614.37012	-390.67386	780.90344	1583.51147	-226.68196	770.45111	1572.90820	-572.69739	851.70020	1529.57178	-394.58670	781.86519	1002.16802	-297.44278	769.36057	1029.32302	-531.90910	773.52733	1024.34460	-315.31188	766.92687	1032.60028	-484.19240
88	1.74000	779.47162	572.96429	-264.90588	793.56293	483.34570	-262.24683	711.40131	113.39553	-285.14508	623.05774	72.55330	-333.77243	818.22150	39.40504	-249.95450	863.32758	70.83831	-310.67676	1000.22278	667.81476	-584.26581	1086.19019	581.76953	-585.44165	1199.61084	243.11833	-606.77020	1136.91394	180.80484	-562.23309	1341.45020	208.39159	-625.81390	1365.86902	253.79198	-566.82965	781.18170	558.01654	-393.07034	728.05426	119.05408	-380.51440	1013.37830	658.05981	-459.22922	1215.18042	259.05902	-513.15399	781.49878	363.92581	-267.08154	718.14764	488.04044	-250.69836	699.07477	373.52460	-252.21234	1002.54968	555.37524	-611.22729	1056.34985	444.71854	-619.58771	828.92535	898.44049	-236.64926	838.43097	783.57758	-242.74477	793.18542	748.02167	-233.50511	716.01208	883.69507	-228.55142	730.44238	767.93677	-245.63724	914.18201	936.33740	-586.71521	997.02893	824.90826	-583.98352	822.13739	869.22650	-616.33307	904.36633	762.96063	-602.06024	836.89209	1098.12402	-277.27682	640.08325	1112.57861	-358.62906	818.79102	1129.56482	-530.94202	637.10071	1116.51221	-438.86819	718.16479	1614.46997	-389.39505	779.87933	1583.25415	-225.58015	768.21521	1572.56262	-571.67780	849.96399	1529.01917	-393.82095	779.88864	1002.26434	-296.79104	767.80831	1029.86541	-531.22751	771.30114	1024.67914	-314.34398	765.02660	1032.95447	-483.14744
89	1.76000	778.83484	573.26697	-263.67746	792.28052	483.45108	-261.82800	711.33868	113.36781	-285.20218	623.07654	72.54683	-333.79245	818.20313	39.39134	-249.90195	863.31036	70.87766	-310.59924	1015.03271	680.50757	-583.18109	1104.82739	598.25494	-584.27448	1234.73425	265.40475	-605.71765	1173.27612	202.10970	-561.86426	1378.02039	233.02650	-622.08063	1400.66052	279.60660	-563.86090	780.72241	558.32599	-392.51266	728.11438	119.12546	-380.52936	1027.65857	671.00696	-458.56375	1248.85120	281.98343	-511.95343	780.60699	364.01822	-266.66675	716.89465	488.02728	-250.62495	698.06958	373.43555	-252.37349	1022.17950	567.61035	-610.41339	1081.38196	459.72147	-618.63458	827.53857	898.57928	-235.99506	836.99353	784.05011	-242.01123	791.67096	748.23547	-233.07275	713.93042	883.76117	-228.38757	728.87732	767.93872	-245.26006	917.44873	944.67352	-585.12030	1005.12769	836.91907	-582.27148	828.26288	874.03363	-616.39276	915.56354	770.70343	-601.40936	834.00116	1098.66333	-276.12466	637.59467	1111.41504	-357.54272	816.42902	1130.82886	-529.53912	634.46472	1116.05420	-438.48380	716.80768	1614.51697	-388.33267	778.71545	1583.19751	-224.69203	765.90753	1572.24585	-570.76154	848.17688	1528.75635	-393.12756	778.00680	1002.31455	-296.10021	766.32944	1030.74492	-530.45798	769.86510	1024.17861	-313.86634	763.34576	1033.84148	-482.45774
